<?xml version="1.0" encoding="UTF-8" standalone="no"?>
<svg
   xmlns:dc="http://purl.org/dc/elements/1.1/"
   xmlns:cc="http://creativecommons.org/ns#"
   xmlns:rdf="http://www.w3.org/1999/02/22-rdf-syntax-ns#"
   xmlns:svg="http://www.w3.org/2000/svg"
   xmlns="http://www.w3.org/2000/svg"
   xmlns:sodipodi="http://sodipodi.sourceforge.net/DTD/sodipodi-0.dtd"
   xmlns:inkscape="http://www.inkscape.org/namespaces/inkscape"
   height="512pt"
   viewBox="-31 0 512 512"
   width="512pt"
   version="1.1"
   id="svg12"
   sodipodi:docname="fountain.svg"
   inkscape:version="0.92.3 (2405546, 2018-03-11)">
  <metadata
     id="metadata18">
    <rdf:RDF>
      <cc:Work
         rdf:about="">
        <dc:format>image/svg+xml</dc:format>
        <dc:type
           rdf:resource="http://purl.org/dc/dcmitype/StillImage" />
        <dc:title></dc:title>
      </cc:Work>
    </rdf:RDF>
  </metadata>
  <defs
     id="defs16" />
  <sodipodi:namedview
     pagecolor="#ffffff"
     bordercolor="#666666"
     borderopacity="1"
     objecttolerance="10"
     gridtolerance="10"
     guidetolerance="10"
     inkscape:pageopacity="0"
     inkscape:pageshadow="2"
     inkscape:window-width="640"
     inkscape:window-height="480"
     id="namedview14"
     showgrid="false"
     inkscape:zoom="0.34570313"
     inkscape:cx="341.33333"
     inkscape:cy="341.33333"
     inkscape:window-x="0"
     inkscape:window-y="0"
     inkscape:window-maximized="0"
     inkscape:current-layer="svg12" />
  <path
     d="m300 0c-31.308594 0-58.871094 16.109375-75 40.433594-16.128906-24.324219-43.691406-40.433594-75-40.433594-49.628906 0-90 40.371094-90 90v15c0 8.289062 6.710938 15 15 15s15-6.710938 15-15v-15c0-33.089844 26.910156-60 60-60s60 26.910156 60 60h-75c-8.289062 0-15 6.710938-15 15 0 57.890625 47.109375 105 105 105s105-47.109375 105-105c0-8.289062-6.710938-15-15-15h-75c0-33.089844 26.910156-60 60-60s60 26.910156 60 60v15c0 8.289062 6.710938 15 15 15s15-6.710938 15-15v-15c0-49.628906-40.371094-90-90-90zm0 0"
     id="path2" />
  <path
     d="m389.972656 165c0 8.285156-6.71875 15-15 15-8.285156 0-15-6.714844-15-15s6.714844-15 15-15c8.28125 0 15 6.714844 15 15zm0 0"
     id="path4" />
  <path
     d="m89.972656 165c0 8.285156-6.71875 15-15 15-8.285156 0-15-6.714844-15-15s6.714844-15 15-15c8.28125 0 15 6.714844 15 15zm0 0"
     id="path6" />
  <path
     d="m396.0625 480.238281 9.746094-29.238281h29.191406c8.289062 0 15-6.710938 15-15s-6.710938-15-15-15h-180v-30h-60v30h-180c-8.289062 0-15 6.710938-15 15s6.710938 15 15 15h29.191406l9.746094 29.238281c6.136719 18.398438 23.289062 31.761719 42.683594 31.761719h256.757812c19.394532 0 36.546875-13.363281 42.683594-31.761719zm0 0"
     id="path8" />
  <path
     d="m405 270h-150v-30h-60v30h-150c-8.289062 0-15 6.710938-15 15s6.710938 15 15 15h29.191406l9.746094 29.238281c6.136719 18.398438 23.289062 31.761719 42.683594 31.761719h196.757812c19.394532 0 36.546875-13.363281 42.6875-31.761719l9.742188-29.238281h29.191406c8.289062 0 15-6.710938 15-15s-6.710938-15-15-15zm0 0"
     id="path10" />
</svg>
