<svg height="456pt" viewBox="-46 0 456 456.00434" width="456pt" xmlns="http://www.w3.org/2000/svg"><path d="m79.179688 408.617188 2.351562.742187c.519531.160156 1.015625.289063 1.527344.441406l17.113281-89.800781h-7.714844l-16.65625 87.496094c1.121094.367187 2.28125.777344 3.378907 1.121094zm0 0"/><path d="m248.441406 320 26.128906 91.585938c.878907-.25 1.769532-.472657 2.640626-.722657l2.007812-.589843c.726562-.21875 1.429688-.457032 2.160156-.679688l-25.578125-89.59375zm0 0"/><path d="m255.808594 224 11.425781-40h-7.359375l-11.425781 40zm0 0"/><path d="m68.003906 304h209.839844c13.253906 0 24-10.746094 24-24v-16c0-13.253906-10.746094-24-24-24h-176c-4.011719 0-7.398438-2.96875-7.929688-6.945312l-6.519531-49.054688h-1.550781c-13.257812 0-24-10.746094-24-24-.039062-6.40625 2.539062-12.550781 7.140625-17.007812.980469-.992188 2.050781-1.890626 3.203125-2.679688.328125-.230469.671875-.441406 1.015625-.65625.875-.546875 1.789063-1.035156 2.726563-1.464844.367187-.167968.726562-.351562 1.113281-.496094 1.292969-.523437 2.632812-.929687 4-1.214843l-17.289063-129.503907c-.511718-3.980468-3.898437-6.9648432-7.910156-6.976562h-23.761719c-2.300781-.0117188-4.492187.976562-6.011719 2.703125-1.515624 1.730469-2.210937 4.03125-1.898437 6.3125l35.847656 288c.546875 3.992187 3.953125 6.972656 7.984375 6.984375zm0 0"/><path d="m77.84375 160c0 4.417969 3.582031 8 8 8h224c2.085938.019531 4.089844-.8125 5.550781-2.304688 1.566407-1.480468 2.449219-3.539062 2.449219-5.695312 0-4.417969-3.582031-8-8-8h-224c-2.085938-.023438-4.089844.808594-5.546875 2.304688-1.570313 1.476562-2.457031 3.539062-2.453125 5.695312zm0 0"/><path d="m346.5625 388.71875c-17.25 11.066406-35.859375 19.859375-55.359375 26.160156-7.121094 2.402344-14.480469 4.5625-22.082031 6.480469h-.078125c-59.085938 14.660156-120.917969 14.164063-179.761719-1.4375-7.839844-2.082031-15.359375-4.480469-22.640625-7.042969-17.398437-6.070312-34.023437-14.179687-49.519531-24.160156l-17.11718775 17.121094c19.17187475 13.125 40.06249975 23.542968 62.07812475 30.960937 7.28125 2.558594 14.878907 4.878907 22.640625 6.878907 31.695313 8.335937 64.347656 12.476562 97.121094 12.320312 31.632812.140625 63.164062-3.703125 93.839844-11.441406 7.597656-1.917969 15.039062-4.078125 22.160156-6.476563 23.390625-7.503906 45.570312-18.363281 65.839844-32.242187zm0 0"/></svg>