<?xml version="1.0" encoding="iso-8859-1"?>
<!-- Generator: Adobe Illustrator 16.0.0, SVG Export Plug-In . SVG Version: 6.00 Build 0)  -->
<!DOCTYPE svg PUBLIC "-//W3C//DTD SVG 1.1//EN" "http://www.w3.org/Graphics/SVG/1.1/DTD/svg11.dtd">
<svg version="1.1" id="Capa_1" xmlns="http://www.w3.org/2000/svg" xmlns:xlink="http://www.w3.org/1999/xlink" x="0px" y="0px"
	 width="371.441px" height="371.441px" viewBox="0 0 371.441 371.441" style="enable-background:new 0 0 371.441 371.441;"
	 xml:space="preserve">
<g>
	<path d="M352.603,0H18.841C8.435,0,0.001,8.434,0.001,18.84v333.761c0,10.404,8.434,18.84,18.84,18.84h333.761
		c10.406,0,18.838-8.436,18.838-18.84V217.645v-13.327V18.84C371.44,8.434,363.009,0,352.603,0z M260.995,115.971
		c0,4.768-3.865,8.633-8.633,8.633h-47.648v151.583c0,4.769-3.865,8.634-8.634,8.634h-20.718c-4.768,0-8.632-3.865-8.632-8.634
		V124.604h-47.651c-4.768,0-8.632-3.865-8.632-8.633V95.252c0-4.768,3.865-8.631,8.632-8.631h133.283
		c4.77,0,8.633,3.863,8.633,8.631V115.971z"/>
</g>
<g>
</g>
<g>
</g>
<g>
</g>
<g>
</g>
<g>
</g>
<g>
</g>
<g>
</g>
<g>
</g>
<g>
</g>
<g>
</g>
<g>
</g>
<g>
</g>
<g>
</g>
<g>
</g>
<g>
</g>
</svg>
